# 3ds Max Wavefront OBJ Exporter v0.97b - (c)2007 guruware
# File Created: 22.09.2016 18:07:01

#
# object Convex
#

v  0.0000 36.9617 -0.0000
v  8.5080 34.5716 -0.0000
v  6.0161 34.5716 -6.0161
v  -0.0000 34.5716 -8.5080
v  -6.0161 34.5716 -6.0161
v  -8.5080 34.5716 0.0000
v  -6.0161 34.5716 6.0161
v  0.0000 34.5716 8.5080
v  6.0161 34.5716 6.0161
v  14.5267 28.1004 -0.0000
v  10.2719 28.1004 -10.2719
v  -0.0000 28.1004 -14.5267
v  -10.2719 28.1004 -10.2719
v  -14.5267 28.1004 0.0000
v  -10.2719 28.1004 10.2719
v  0.0000 28.1004 14.5267
v  10.2719 28.1004 10.2719
v  14.5267 8.8613 -0.0000
v  10.2719 8.8613 -10.2719
v  -0.0000 8.8613 -14.5267
v  -10.2719 8.8613 -10.2719
v  -14.5267 8.8613 0.0000
v  -10.2719 8.8613 10.2719
v  0.0000 8.8613 14.5267
v  10.2719 8.8613 10.2719
v  8.5080 2.3902 -0.0000
v  6.0161 2.3902 -6.0161
v  -0.0000 2.3902 -8.5080
v  -6.0161 2.3902 -6.0161
v  -8.5080 2.3902 0.0000
v  -6.0161 2.3902 6.0161
v  0.0000 2.3902 8.5080
v  6.0161 2.3902 6.0161
v  0.0000 0.0000 -0.0000
# 34 vertices

vn -0.0000 1.0000 -0.0000
vn 0.5663 0.8242 0.0000
vn 0.4005 0.8242 -0.4005
vn -0.0000 0.8242 -0.5663
vn -0.4005 0.8242 -0.4005
vn -0.5663 0.8242 0.0000
vn -0.4005 0.8242 0.4005
vn 0.0000 0.8242 0.5663
vn 0.4005 0.8242 0.4005
vn 0.7322 0.6810 0.0000
vn 0.5178 0.6810 -0.5178
vn -0.0000 0.6810 -0.7322
vn -0.5178 0.6810 -0.5178
vn -0.7322 0.6810 0.0000
vn -0.5178 0.6810 0.5178
vn -0.0000 0.6810 0.7322
vn 0.5178 0.6810 0.5178
vn 1.0000 0.0000 0.0000
vn 0.7071 0.0000 -0.7071
vn -0.0000 0.0000 -1.0000
vn 0.0000 0.0000 -1.0000
vn -0.7071 0.0000 -0.7071
vn -1.0000 0.0000 0.0000
vn -0.7071 0.0000 0.7071
vn 0.0000 0.0000 1.0000
vn -0.0000 0.0000 1.0000
vn 0.7071 0.0000 0.7071
vn 0.7322 -0.6810 0.0000
vn 0.5663 -0.8242 0.0000
vn 0.4005 -0.8242 -0.4005
vn 0.5178 -0.6810 -0.5178
vn -0.0000 -0.8242 -0.5663
vn -0.0000 -0.6810 -0.7322
vn -0.4005 -0.8242 -0.4005
vn -0.5178 -0.6810 -0.5178
vn -0.5663 -0.8242 0.0000
vn -0.7322 -0.6810 0.0000
vn -0.4005 -0.8242 0.4005
vn -0.5178 -0.6810 0.5178
vn -0.0000 -0.8242 0.5663
vn -0.0000 -0.6810 0.7322
vn 0.4005 -0.8242 0.4005
vn 0.5178 -0.6810 0.5178
vn -0.0000 -1.0000 0.0000
# 44 vertex normals

vt 0.5000 0.5000 0.0000
vt 0.7928 0.5000 0.0000
vt 0.7071 0.7071 0.0000
vt 0.5000 0.7928 0.0000
vt 0.2929 0.7071 0.0000
vt 0.2072 0.5000 0.0000
vt 0.2929 0.2929 0.0000
vt 0.5000 0.2072 0.0000
vt 0.7071 0.2929 0.0000
vt 1.0000 0.5000 0.0000
vt 0.8536 0.8536 0.0000
vt 0.5000 1.0000 0.0000
vt 0.1464 0.8536 0.0000
vt 0.0000 0.5000 0.0000
vt 0.1464 0.1464 0.0000
vt 0.5000 0.0000 0.0000
vt 0.8536 0.1464 0.0000
vt 0.0000 1.0000 0.0000
vt 0.0000 0.0000 0.0000
vt 0.1250 0.0000 0.0000
vt 0.1250 1.0000 0.0000
vt 0.2500 0.0000 0.0000
vt 0.2500 1.0000 0.0000
vt 0.3750 0.0000 0.0000
vt 0.3750 1.0000 0.0000
vt 0.6250 0.0000 0.0000
vt 0.6250 1.0000 0.0000
vt 0.7500 0.0000 0.0000
vt 0.7500 1.0000 0.0000
vt 0.8750 0.0000 0.0000
vt 0.8750 1.0000 0.0000
vt 1.0000 0.0000 0.0000
vt 1.0000 1.0000 0.0000
# 33 texture coords

g Convex
usemtl 01___Default
s 4
f 1/1/1 2/2/2 3/3/3 
f 1/1/1 3/3/3 4/4/4 
f 1/1/1 4/4/4 5/5/5 
f 1/1/1 5/5/5 6/6/6 
f 1/1/1 6/6/6 7/7/7 
f 1/1/1 7/7/7 8/8/8 
f 1/1/1 8/8/8 9/9/9 
f 1/1/1 9/9/9 2/2/2 
f 2/2/2 10/10/10 11/11/11 
f 2/2/2 11/11/11 3/3/3 
f 3/3/3 11/11/11 12/12/12 
f 3/3/3 12/12/12 4/4/4 
f 4/4/4 12/12/12 13/13/13 
f 4/4/4 13/13/13 5/5/5 
f 5/5/5 13/13/13 14/14/14 
f 5/5/5 14/14/14 6/6/6 
f 6/6/6 14/14/14 15/15/15 
f 6/6/6 15/15/15 7/7/7 
f 7/7/7 15/15/15 16/16/16 
f 7/7/7 16/16/16 8/8/8 
f 8/8/8 16/16/16 17/17/17 
f 8/8/8 17/17/17 9/9/9 
f 9/9/9 17/17/17 10/10/10 
f 9/9/9 10/10/10 2/2/2 
s 8
f 10/18/18 18/19/18 19/20/19 
f 10/18/18 19/20/19 11/21/19 
f 11/21/19 19/20/19 20/22/20 
f 11/21/19 20/22/20 12/23/21 
f 12/23/21 20/22/20 21/24/22 
f 12/23/21 21/24/22 13/25/22 
f 13/25/22 21/24/22 22/16/23 
f 13/25/22 22/16/23 14/12/23 
f 14/12/23 22/16/23 23/26/24 
f 14/12/23 23/26/24 15/27/24 
f 15/27/24 23/26/24 24/28/25 
f 15/27/24 24/28/25 16/29/26 
f 16/29/26 24/28/25 25/30/27 
f 16/29/26 25/30/27 17/31/27 
f 17/31/27 25/30/27 18/32/18 
f 17/31/27 18/32/18 10/33/18 
s 4
f 18/10/28 26/2/29 27/3/30 
f 18/10/28 27/3/30 19/11/31 
f 19/11/31 27/3/30 28/4/32 
f 19/11/31 28/4/32 20/12/33 
f 20/12/33 28/4/32 29/5/34 
f 20/12/33 29/5/34 21/13/35 
f 21/13/35 29/5/34 30/6/36 
f 21/13/35 30/6/36 22/14/37 
f 22/14/37 30/6/36 31/7/38 
f 22/14/37 31/7/38 23/15/39 
f 23/15/39 31/7/38 32/8/40 
f 23/15/39 32/8/40 24/16/41 
f 24/16/41 32/8/40 33/9/42 
f 24/16/41 33/9/42 25/17/43 
f 25/17/43 33/9/42 26/2/29 
f 25/17/43 26/2/29 18/10/28 
f 26/2/29 34/1/44 27/3/30 
f 27/3/30 34/1/44 28/4/32 
f 28/4/32 34/1/44 29/5/34 
f 29/5/34 34/1/44 30/6/36 
f 30/6/36 34/1/44 31/7/38 
f 31/7/38 34/1/44 32/8/40 
f 32/8/40 34/1/44 33/9/42 
f 33/9/42 34/1/44 26/2/29 
# 64 faces

