# OBJ written from D:\projects\UX_Source_Art\gvr-modelviewer2\camera_icon.obj
# Units	meters

o Mesh
mtllib camera_icon.mtl

o camera
v -0.5468 -0.264 -0.325
v 0.7782 -0.264 -0.325
v 0.7782 -0.264 0.325
v -0.5468 -0.264 0.325
v -0.5468 0.5 -0.325
v 0.7782 0.5 -0.325
v 0.7782 0.5 0.325
v -0.5468 0.5 0.325
v -0.5468 -0.2364 -0.15366
v -0.5468 -0.2364 0.15366
v -0.5468 0.2364 -0.15366
v -0.5468 0.2364 0.15366
v -0.99995 -0.216519 -0.14182
v -0.99995 -0.216519 0.14182
v -0.99995 0.216519 -0.14182
v -0.99995 0.216519 0.14182
v -1.4902 -0.372412 -0.372412
v -1.4902 -0.372412 0.372412
v -1.4902 0.372412 -0.372412
v -1.4902 0.372412 0.372412
v -0.4628 0.5 0.0107146
v 0.6942 0.5 0.0107146
v 0.6942 0.5 0.259685
v -0.4628 0.5 0.259685
v -0.4628 1.126 0.0107146
v 0.6942 1.126 0.0107146
v 0.6942 1.126 0.259685
v -0.4628 1.126 0.259685
v 0.853288 0.89125 0.0107146
v -0.621888 0.89125 0.0107146
v 0.853288 0.708666 0.0107146
v -0.621888 0.708666 0.0107146
v -0.621888 0.89125 0.259685
v -0.621888 0.708666 0.259685
v 0.853288 0.89125 0.259685
v 0.853288 0.708666 0.259685
v -0.324863 -0.472 -0.21125
v 0.556262 -0.472 -0.21125
v 0.556262 -0.472 0.21125
v -0.324863 -0.472 0.21125
vn 0 0 -1
vn 0 -0.247617 -0.968858
vn 1 0 0
vn 0 0 1
vn 0 -0.247617 0.968858
vn -1 0 0
vn -0.0438312 -0.999039 0
vn 0.131632 -0.991299 0
vn -0.0261198 0 0.999659
vn 0.205295 0 0.9787
vn -0.0438312 0.999039 0
vn 0.131632 0.991299 0
vn -0.0261198 0 -0.999659
vn 0.205295 0 -0.9787
vn 0.425626 0 -0.904899
vn 0.303036 -0.952979 0
vn 0.425626 0 0.904899
vn 0.303036 0.952979 0
vn 0 1 0
vn -0.955985 0.293415 0
vn -0.827815 0.561001 0
vn -0.947428 -0.319968 0
vn -0.795241 -0.606293 0
vn 0.955985 0.293415 0
vn 0.827815 0.561001 0
vn 0.947428 -0.319968 0
vn 0.795241 -0.606293 0
vn 0 -0.479812 -0.877371
vn 0.683825 -0.729646 0
vn 0 -0.479812 0.877371
vn -0.683825 -0.729646 0
vn 0 -1 0
vt 1 0.666667
vt 0.75 0.666667
vt 0.75 0.333333
vt 1 0.333333
vt 0.5 0.666667
vt 0.5 0.333333
vt 0.25 0.666667
vt 0.25 0.333333
vt 0 0.333333
vt 0.173117 0.410217
vt 0.0768833 0.410217
vt 0.173117 0.589783
vt 0 0.666667
vt 0.0768833 0.589783
vt 0.478925 0.687742
vt 0.271075 0.687742
vt 0.5 1
vt 0.478925 0.978925
vt 0.25 1
vt 0.271075 0.978925
vt 0.25 0
vt 0.5 0
mtllib camera_icon.mtl
usemtl Default
g Default
f 5/1/1 6/2/1 2/3/2 1/4/2
f 6/2/3 7/5/3 3/6/3 2/3/3
f 7/5/4 8/7/4 4/8/5 3/6/5
f 1/9/6 4/8/6 10/10/6 9/11/6
f 4/8/6 8/7/6 12/12/6 10/10/6
f 8/7/6 5/13/6 11/14/6 12/12/6
f 5/13/6 1/9/6 9/11/6 11/14/6
f 9/11/7 10/10/7 14/10/8 13/11/8
f 10/10/9 12/12/9 16/12/10 14/10/10
f 12/12/11 11/14/11 15/14/12 16/12/12
f 11/14/13 9/11/13 13/11/14 15/14/14
f 15/14/14 13/11/14 17/11/15 19/14/15
f 13/11/8 14/10/8 18/10/16 17/11/16
f 14/10/10 16/12/10 20/12/17 18/10/17
f 16/12/12 15/14/12 19/14/18 20/12/18
f 20/12/6 19/14/6 17/11/6 18/10/6
f 8/7/19 7/5/19 23/15/19 24/16/19
f 7/5/19 6/17/19 22/18/19 23/15/19
f 6/17/19 5/19/19 21/20/19 22/18/19
f 5/19/19 8/7/19 24/16/19 21/20/19
f 25/20/19 28/16/19 27/15/19 26/18/19
f 30/20/1 25/20/1 26/18/1 29/18/1
f 29/18/1 31/18/1 32/20/1 30/20/1
f 31/18/1 22/18/1 21/20/1 32/20/1
f 33/16/20 28/16/21 25/20/21 30/20/20
f 30/20/20 32/20/22 34/16/22 33/16/20
f 32/20/22 21/20/23 24/16/23 34/16/22
f 35/15/4 27/15/4 28/16/4 33/16/4
f 33/16/4 34/16/4 36/15/4 35/15/4
f 34/16/4 24/16/4 23/15/4 36/15/4
f 29/18/24 26/18/25 27/15/25 35/15/24
f 35/15/24 36/15/26 31/18/26 29/18/24
f 36/15/26 23/15/27 22/18/27 31/18/26
f 1/21/2 2/22/2 38/22/28 37/21/28
f 2/22/29 3/6/29 39/6/29 38/22/29
f 3/6/5 4/8/5 40/8/30 39/6/30
f 4/8/31 1/21/31 37/21/31 40/8/31
f 37/21/32 38/22/32 39/6/32 40/8/32
