# Exported from Wings 3D 1.5.4
mtllib cube.mtl
o Cube2
#8 vertices, 6 faces
v -3.5000000e-2 -3.5000000e-2 -0.17500000
v -3.5000000e-2 -3.5000000e-2 0.17500000
v -3.5000000e-2 3.5000000e-2 -0.17500000
v -3.5000000e-2 3.5000000e-2 0.17500000
v 3.5000000e-2 -3.5000000e-2 -0.17500000
v 3.5000000e-2 -3.5000000e-2 0.17500000
v 3.5000000e-2 3.5000000e-2 -0.17500000
v 3.5000000e-2 3.5000000e-2 0.17500000
vt 0.0000000e+0 0.0000000e+0
vt 0.0000000e+0 8.3333333e-2
vt 0.0000000e+0 0.16666667
vt 0.0000000e+0 0.25000000
vt 0.0000000e+0 0.33333333
vt 6.9388939e-18 0.25000000
vt 1.3877788e-17 0.16666667
vt 8.3333333e-2 0.16666667
vt 8.3333333e-2 0.25000000
vt 8.3333333e-2 0.33333333
vt 0.83333333 1.1102230e-16
vt 0.83333333 5.0653925e-16
vt 0.83333333 8.3333333e-2
vt 0.83333333 0.16666667
vt 0.83333333 0.83333333
vt 0.91666667 0.0000000e+0
vt 0.91666667 0.83333333
vt 1.00000000 0.0000000e+0
vt 1.00000000 0.83333333
vn -0.57735027 -0.57735027 -0.57735027
vn -0.57735027 -0.57735027 0.57735027
vn -0.57735027 0.57735027 -0.57735027
vn -0.57735027 0.57735027 0.57735027
vn 0.57735027 -0.57735027 -0.57735027
vn 0.57735027 -0.57735027 0.57735027
vn 0.57735027 0.57735027 -0.57735027
vn 0.57735027 0.57735027 0.57735027
g Cube2_Cube2_auv
usemtl Cube2_auv
s 1
f 1/19/1 5/17/5 6/16/6 2/18/2
f 2/12/2 4/13/4 3/2/3 1/1/1
f 2/7/2 6/8/6 8/9/8 4/4/4
f 3/10/3 7/5/7 5/6/5 1/9/1
f 4/11/4 8/16/8 7/17/7 3/15/3
f 5/13/5 7/14/7 8/3/8 6/2/6
